<svg xmlns="http://www.w3.org/2000/svg" viewBox="0 0 1635 607" preserveAspectRatio="xMidYMid" width="1635" height="607" xmlns:xlink="http://www.w3.org/1999/xlink" style="shape-rendering:auto;display:block;background-position-x:0%;background-position-y:0%;background-size:auto;background-origin:padding-box;background-clip:border-box;background:scroll rgba(0, 0, 0, 0) none  repeat;width:1635px;height:607px;;animation:none"><g style="transform:matrix(-1, 0, 0, -1, 1635, 607);;animation:none"><linearGradient y2="0" y1="0" x2="1" x1="0" id="lg-5z1ivifcnzb"><stop offset="0" stop-color="#ff00ff"></stop>

  
<stop offset="1" stop-color="#00ffff"></stop></linearGradient>
<path opacity="0.4" fill="url(#lg-5z1ivifcnzb)" d="M 0 0 L 0 552.18 Q 204.38 530.48 408.75 496.76 T 817.5 181.14 T 1226.25 -83.06 T 1635 -22.13 L 1635 0 Z" style="fill:url('#lg-5z1ivifcnzb');opacity:0.4;;animation:none"></path>
<path opacity="0.4" fill="url(#lg-5z1ivifcnzb)" d="M 0 0 L 0 526.1 Q 204.38 362.872 408.75 333.318 T 817.5 163.752 T 1226.25 -89.0991 T 1635 -263.095 L 1635 0 Z" style="fill:url('#lg-5z1ivifcnzb');opacity:0.4;;animation:none"></path>
<path opacity="0.4" fill="url(#lg-5z1ivifcnzb)" d="M 0 0 L 0 566.182 Q 204.38 487.033 408.75 457.113 T 817.5 118.913 T 1226.25 119.753 T 1635 -25.1623 L 1635 0 Z" style="fill:url('#lg-5z1ivifcnzb');opacity:0.4;;animation:none"></path>
<path opacity="0.4" fill="url(#lg-5z1ivifcnzb)" d="M 0 0 L 0 598.535 Q 204.38 421.474 408.75 383.049 T 817.5 302.725 T 1226.25 -100.488 T 1635 -193.342 L 1635 0 Z" style="fill:url('#lg-5z1ivifcnzb');opacity:0.4;;animation:none"></path>
<path opacity="0.4" fill="url(#lg-5z1ivifcnzb)" d="M 0 0 L 0 632.875 Q 204.38 290.401 408.75 267.647 T 817.5 152.929 T 1226.25 116.406 T 1635 -105.129 L 1635 0 Z" style="fill:url('#lg-5z1ivifcnzb');opacity:0.4;;animation:none"></path>
<g></g></g><!-- [ldio] generated by https://loading.io --></svg>